<mxfile>
    <diagram id="bIUo5U85Ybi3YxnYaGgD" name="Page-1">
        <mxGraphModel dx="587" dy="407" grid="1" gridSize="10" guides="1" tooltips="1" connect="1" arrows="1" fold="1" page="1" pageScale="1" pageWidth="850" pageHeight="1100" math="0" shadow="0">
            <root>
                <mxCell id="0"/>
                <mxCell id="1" parent="0"/>
                <mxCell id="59vOMgbktmO8nPn6EruF-9" style="edgeStyle=orthogonalEdgeStyle;rounded=0;orthogonalLoop=1;jettySize=auto;html=1;exitX=1;exitY=0.5;exitDx=0;exitDy=0;entryX=0;entryY=0.5;entryDx=0;entryDy=0;" parent="1" source="dCtTFGtNdR7Z6FnfgH9b-1" target="59vOMgbktmO8nPn6EruF-4" edge="1">
                    <mxGeometry relative="1" as="geometry"/>
                </mxCell>
                <mxCell id="dCtTFGtNdR7Z6FnfgH9b-1" value="1979" style="rounded=0;whiteSpace=wrap;html=1;fillColor=#e3c800;strokeColor=#B09500;fontColor=#ffffff;" parent="1" vertex="1">
                    <mxGeometry x="40" y="120" width="120" height="40" as="geometry"/>
                </mxCell>
                <mxCell id="59vOMgbktmO8nPn6EruF-1" value="Initial" style="rounded=0;whiteSpace=wrap;html=1;fillColor=#e3c800;strokeColor=#B09500;fontColor=#ffffff;" parent="1" vertex="1">
                    <mxGeometry x="40" y="40" width="90" height="30" as="geometry"/>
                </mxCell>
                <mxCell id="59vOMgbktmO8nPn6EruF-2" value="Boss" style="rounded=0;whiteSpace=wrap;html=1;fillColor=#e51400;strokeColor=#B20000;fontColor=#ffffff;" parent="1" vertex="1">
                    <mxGeometry x="140" y="40" width="90" height="30" as="geometry"/>
                </mxCell>
                <mxCell id="59vOMgbktmO8nPn6EruF-3" value="Normal Room" style="rounded=0;whiteSpace=wrap;html=1;" parent="1" vertex="1">
                    <mxGeometry x="240" y="40" width="90" height="30" as="geometry"/>
                </mxCell>
                <mxCell id="59vOMgbktmO8nPn6EruF-10" style="edgeStyle=orthogonalEdgeStyle;rounded=0;orthogonalLoop=1;jettySize=auto;html=1;exitX=1;exitY=0.5;exitDx=0;exitDy=0;entryX=0;entryY=0.5;entryDx=0;entryDy=0;" parent="1" source="59vOMgbktmO8nPn6EruF-4" target="59vOMgbktmO8nPn6EruF-5" edge="1">
                    <mxGeometry relative="1" as="geometry"/>
                </mxCell>
                <mxCell id="59vOMgbktmO8nPn6EruF-4" value="483C" style="rounded=0;whiteSpace=wrap;html=1;" parent="1" vertex="1">
                    <mxGeometry x="180" y="120" width="120" height="40" as="geometry"/>
                </mxCell>
                <mxCell id="59vOMgbktmO8nPn6EruF-11" style="edgeStyle=orthogonalEdgeStyle;rounded=0;orthogonalLoop=1;jettySize=auto;html=1;exitX=1;exitY=0.5;exitDx=0;exitDy=0;entryX=0;entryY=0.5;entryDx=0;entryDy=0;" parent="1" source="59vOMgbktmO8nPn6EruF-5" target="59vOMgbktmO8nPn6EruF-6" edge="1">
                    <mxGeometry relative="1" as="geometry"/>
                </mxCell>
                <mxCell id="59vOMgbktmO8nPn6EruF-5" value="AFB8" style="rounded=0;whiteSpace=wrap;html=1;" parent="1" vertex="1">
                    <mxGeometry x="320" y="120" width="120" height="40" as="geometry"/>
                </mxCell>
                <mxCell id="59vOMgbktmO8nPn6EruF-12" style="edgeStyle=orthogonalEdgeStyle;rounded=0;orthogonalLoop=1;jettySize=auto;html=1;exitX=0.5;exitY=1;exitDx=0;exitDy=0;entryX=0.5;entryY=0;entryDx=0;entryDy=0;" parent="1" source="59vOMgbktmO8nPn6EruF-6" target="59vOMgbktmO8nPn6EruF-7" edge="1">
                    <mxGeometry relative="1" as="geometry"/>
                </mxCell>
                <mxCell id="59vOMgbktmO8nPn6EruF-6" value="822B" style="rounded=0;whiteSpace=wrap;html=1;" parent="1" vertex="1">
                    <mxGeometry x="460" y="120" width="120" height="40" as="geometry"/>
                </mxCell>
                <mxCell id="59vOMgbktmO8nPn6EruF-22" value="" style="edgeStyle=orthogonalEdgeStyle;rounded=0;orthogonalLoop=1;jettySize=auto;html=1;" parent="1" source="59vOMgbktmO8nPn6EruF-7" target="59vOMgbktmO8nPn6EruF-21" edge="1">
                    <mxGeometry relative="1" as="geometry"/>
                </mxCell>
                <mxCell id="59vOMgbktmO8nPn6EruF-36" value="" style="edgeStyle=orthogonalEdgeStyle;rounded=0;orthogonalLoop=1;jettySize=auto;html=1;" parent="1" source="59vOMgbktmO8nPn6EruF-7" target="59vOMgbktmO8nPn6EruF-35" edge="1">
                    <mxGeometry relative="1" as="geometry"/>
                </mxCell>
                <mxCell id="9nHtO1ZdrJ-iMX_YAF2--2" style="edgeStyle=orthogonalEdgeStyle;rounded=0;orthogonalLoop=1;jettySize=auto;html=1;exitX=0;exitY=0.5;exitDx=0;exitDy=0;entryX=1;entryY=0.5;entryDx=0;entryDy=0;" parent="1" source="59vOMgbktmO8nPn6EruF-7" target="9nHtO1ZdrJ-iMX_YAF2--1" edge="1">
                    <mxGeometry relative="1" as="geometry"/>
                </mxCell>
                <mxCell id="H8vwa_T0D4mPQU_aUMtZ-2" style="edgeStyle=orthogonalEdgeStyle;rounded=0;orthogonalLoop=1;jettySize=auto;html=1;exitX=0;exitY=0.25;exitDx=0;exitDy=0;entryX=0.442;entryY=-0.075;entryDx=0;entryDy=0;entryPerimeter=0;" parent="1" source="59vOMgbktmO8nPn6EruF-7" target="H8vwa_T0D4mPQU_aUMtZ-1" edge="1">
                    <mxGeometry relative="1" as="geometry"/>
                </mxCell>
                <mxCell id="59vOMgbktmO8nPn6EruF-7" value="D1CD" style="rounded=0;whiteSpace=wrap;html=1;fillColor=#647687;strokeColor=#314354;fontColor=#ffffff;" parent="1" vertex="1">
                    <mxGeometry x="460" y="190" width="120" height="80" as="geometry"/>
                </mxCell>
                <mxCell id="59vOMgbktmO8nPn6EruF-14" value="Important Room" style="rounded=0;whiteSpace=wrap;html=1;fillColor=#647687;strokeColor=#314354;fontColor=#ffffff;" parent="1" vertex="1">
                    <mxGeometry x="350" y="40" width="90" height="30" as="geometry"/>
                </mxCell>
                <mxCell id="59vOMgbktmO8nPn6EruF-15" value="Secret Room" style="rounded=0;whiteSpace=wrap;html=1;fillColor=#f0a30a;strokeColor=#BD7000;fontColor=#ffffff;" parent="1" vertex="1">
                    <mxGeometry x="460" y="40" width="90" height="30" as="geometry"/>
                </mxCell>
                <mxCell id="59vOMgbktmO8nPn6EruF-16" value="5258" style="whiteSpace=wrap;html=1;" parent="1" vertex="1">
                    <mxGeometry x="660" y="320" width="120" height="60" as="geometry"/>
                </mxCell>
                <mxCell id="59vOMgbktmO8nPn6EruF-24" value="" style="edgeStyle=orthogonalEdgeStyle;rounded=0;orthogonalLoop=1;jettySize=auto;html=1;" parent="1" source="59vOMgbktmO8nPn6EruF-21" target="59vOMgbktmO8nPn6EruF-23" edge="1">
                    <mxGeometry relative="1" as="geometry"/>
                </mxCell>
                <mxCell id="59vOMgbktmO8nPn6EruF-21" value="240F" style="rounded=0;whiteSpace=wrap;html=1;" parent="1" vertex="1">
                    <mxGeometry x="610" y="210" width="120" height="40" as="geometry"/>
                </mxCell>
                <mxCell id="59vOMgbktmO8nPn6EruF-29" value="" style="edgeStyle=orthogonalEdgeStyle;rounded=0;orthogonalLoop=1;jettySize=auto;html=1;" parent="1" source="59vOMgbktmO8nPn6EruF-23" target="59vOMgbktmO8nPn6EruF-28" edge="1">
                    <mxGeometry relative="1" as="geometry"/>
                </mxCell>
                <mxCell id="59vOMgbktmO8nPn6EruF-31" value="" style="edgeStyle=orthogonalEdgeStyle;rounded=0;orthogonalLoop=1;jettySize=auto;html=1;" parent="1" source="59vOMgbktmO8nPn6EruF-23" target="59vOMgbktmO8nPn6EruF-30" edge="1">
                    <mxGeometry relative="1" as="geometry"/>
                </mxCell>
                <mxCell id="59vOMgbktmO8nPn6EruF-23" value="5F4A" style="rounded=0;whiteSpace=wrap;html=1;" parent="1" vertex="1">
                    <mxGeometry x="760" y="210" width="120" height="40" as="geometry"/>
                </mxCell>
                <mxCell id="59vOMgbktmO8nPn6EruF-28" value="2031&lt;br&gt;(key)" style="rounded=0;whiteSpace=wrap;html=1;" parent="1" vertex="1">
                    <mxGeometry x="910" y="210" width="120" height="40" as="geometry"/>
                </mxCell>
                <mxCell id="59vOMgbktmO8nPn6EruF-33" value="" style="edgeStyle=orthogonalEdgeStyle;rounded=0;orthogonalLoop=1;jettySize=auto;html=1;" parent="1" source="59vOMgbktmO8nPn6EruF-30" target="59vOMgbktmO8nPn6EruF-32" edge="1">
                    <mxGeometry relative="1" as="geometry"/>
                </mxCell>
                <mxCell id="59vOMgbktmO8nPn6EruF-30" value="93C9&lt;br&gt;(computer pw to boss)" style="rounded=0;whiteSpace=wrap;html=1;" parent="1" vertex="1">
                    <mxGeometry x="755" y="140" width="130" height="40" as="geometry"/>
                </mxCell>
                <mxCell id="59vOMgbktmO8nPn6EruF-32" value="4F09" style="rounded=0;whiteSpace=wrap;html=1;fillColor=#f0a30a;strokeColor=#BD7000;fontColor=#ffffff;" parent="1" vertex="1">
                    <mxGeometry x="610" y="140" width="120" height="40" as="geometry"/>
                </mxCell>
                <mxCell id="59vOMgbktmO8nPn6EruF-34" value="Puzzle Room" style="rounded=0;whiteSpace=wrap;html=1;fillColor=#d80073;strokeColor=#A50040;fontColor=#ffffff;" parent="1" vertex="1">
                    <mxGeometry x="560" y="40" width="90" height="30" as="geometry"/>
                </mxCell>
                <mxCell id="59vOMgbktmO8nPn6EruF-38" value="" style="edgeStyle=orthogonalEdgeStyle;rounded=0;orthogonalLoop=1;jettySize=auto;html=1;" parent="1" source="59vOMgbktmO8nPn6EruF-35" target="59vOMgbktmO8nPn6EruF-37" edge="1">
                    <mxGeometry relative="1" as="geometry"/>
                </mxCell>
                <mxCell id="59vOMgbktmO8nPn6EruF-35" value="1C11&lt;br&gt;double jump" style="rounded=0;whiteSpace=wrap;html=1;fillColor=#d80073;strokeColor=#A50040;fontColor=#ffffff;" parent="1" vertex="1">
                    <mxGeometry x="460" y="390" width="120" height="40" as="geometry"/>
                </mxCell>
                <mxCell id="59vOMgbktmO8nPn6EruF-37" value="9A0E" style="whiteSpace=wrap;html=1;rounded=0;strokeColor=#BD7000;fillColor=#f0a30a;fontColor=#ffffff;" parent="1" vertex="1">
                    <mxGeometry x="310" y="390" width="120" height="40" as="geometry"/>
                </mxCell>
                <mxCell id="pnwIhc4s34lSlc5fjBag-1" style="edgeStyle=orthogonalEdgeStyle;rounded=0;orthogonalLoop=1;jettySize=auto;html=1;exitX=0;exitY=0.5;exitDx=0;exitDy=0;entryX=1;entryY=0.5;entryDx=0;entryDy=0;" parent="1" source="9nHtO1ZdrJ-iMX_YAF2--1" target="59vOMgbktmO8nPn6EruF-16" edge="1">
                    <mxGeometry relative="1" as="geometry"/>
                </mxCell>
                <mxCell id="pnwIhc4s34lSlc5fjBag-3" value="" style="edgeStyle=orthogonalEdgeStyle;rounded=0;orthogonalLoop=1;jettySize=auto;html=1;" parent="1" source="9nHtO1ZdrJ-iMX_YAF2--1" target="pnwIhc4s34lSlc5fjBag-2" edge="1">
                    <mxGeometry relative="1" as="geometry"/>
                </mxCell>
                <mxCell id="pnwIhc4s34lSlc5fjBag-5" style="edgeStyle=orthogonalEdgeStyle;rounded=0;orthogonalLoop=1;jettySize=auto;html=1;exitX=0.75;exitY=1;exitDx=0;exitDy=0;entryX=0.5;entryY=0;entryDx=0;entryDy=0;" parent="1" source="9nHtO1ZdrJ-iMX_YAF2--1" target="pnwIhc4s34lSlc5fjBag-4" edge="1">
                    <mxGeometry relative="1" as="geometry"/>
                </mxCell>
                <mxCell id="pnwIhc4s34lSlc5fjBag-8" style="edgeStyle=orthogonalEdgeStyle;rounded=0;orthogonalLoop=1;jettySize=auto;html=1;exitX=1;exitY=0.75;exitDx=0;exitDy=0;entryX=0;entryY=0.5;entryDx=0;entryDy=0;" parent="1" source="9nHtO1ZdrJ-iMX_YAF2--1" target="pnwIhc4s34lSlc5fjBag-7" edge="1">
                    <mxGeometry relative="1" as="geometry"/>
                </mxCell>
                <mxCell id="9nHtO1ZdrJ-iMX_YAF2--1" value="07D3" style="whiteSpace=wrap;html=1;" parent="1" vertex="1">
                    <mxGeometry x="800" y="320" width="120" height="60" as="geometry"/>
                </mxCell>
                <mxCell id="pnwIhc4s34lSlc5fjBag-2" value="F492&lt;br&gt;(key)" style="whiteSpace=wrap;html=1;" parent="1" vertex="1">
                    <mxGeometry x="690" y="440" width="120" height="60" as="geometry"/>
                </mxCell>
                <mxCell id="pnwIhc4s34lSlc5fjBag-4" value="AA6C&lt;br&gt;(gate to FA5B)" style="whiteSpace=wrap;html=1;fillColor=#d80073;strokeColor=#A50040;fontColor=#ffffff;" parent="1" vertex="1">
                    <mxGeometry x="860" y="440" width="120" height="60" as="geometry"/>
                </mxCell>
                <mxCell id="pnwIhc4s34lSlc5fjBag-7" value="&lt;span style=&quot;text-align: left&quot;&gt;FA5B&lt;br&gt;(key)&lt;br&gt;&lt;/span&gt;" style="whiteSpace=wrap;html=1;" parent="1" vertex="1">
                    <mxGeometry x="1000" y="360" width="120" height="60" as="geometry"/>
                </mxCell>
                <mxCell id="H8vwa_T0D4mPQU_aUMtZ-1" value="39C4" style="rounded=0;whiteSpace=wrap;html=1;" parent="1" vertex="1">
                    <mxGeometry x="90" y="310" width="120" height="40" as="geometry"/>
                </mxCell>
                <mxCell id="H8vwa_T0D4mPQU_aUMtZ-3" value="Double Jump" style="text;html=1;strokeColor=none;fillColor=none;align=center;verticalAlign=middle;whiteSpace=wrap;rounded=0;fontStyle=1" parent="1" vertex="1">
                    <mxGeometry x="240" y="210" width="120" height="20" as="geometry"/>
                </mxCell>
                <mxCell id="2" value="3 Keys" style="text;html=1;strokeColor=none;fillColor=none;align=right;verticalAlign=middle;whiteSpace=wrap;rounded=0;fontStyle=1" vertex="1" parent="1">
                    <mxGeometry x="400" y="320" width="120" height="20" as="geometry"/>
                </mxCell>
            </root>
        </mxGraphModel>
    </diagram>
</mxfile>